HIERARCHY
ROOT Hips
{
	OFFSET 0.000000 0.000000 0.000000
	CHANNELS 6 Xposition Yposition Zposition Zrotation Yrotation Xrotation 
	JOINT LHipJoint
	{
		OFFSET 0.000000 0.000000 0.000000
		CHANNELS 3 Zrotation Yrotation Xrotation
		JOINT LeftUpLeg
		{
			OFFSET 1.363060 -1.794630 0.839290
			CHANNELS 3 Zrotation Yrotation Xrotation
			JOINT LeftLeg
			{
				OFFSET 2.448110 -6.726130 0.000000
				CHANNELS 3 Zrotation Yrotation Xrotation
				JOINT LeftFoot
				{
					OFFSET 2.562200 -7.039590 0.000000
					CHANNELS 3 Zrotation Yrotation Xrotation
					JOINT LeftToeBase
					{
						OFFSET 0.157640 -0.433110 2.322550
						CHANNELS 3 Zrotation Yrotation Xrotation
						End Site
						{
							OFFSET 0.000000 0.000000 0.000000
						}
					}
				}
			}
		}
	}
	JOINT RHipJoint
	{
		OFFSET 0.000000 0.000000 0.000000
		CHANNELS 3 Zrotation Yrotation Xrotation
		JOINT RightUpLeg
		{
			OFFSET -1.305520 -1.794630 0.839290
			CHANNELS 3 Zrotation Yrotation Xrotation
			JOINT RightLeg
			{
				OFFSET -2.542530 -6.985550 0.000000
				CHANNELS 3 Zrotation Yrotation Xrotation
				JOINT RightFoot
				{
					OFFSET -2.568260 -7.056230 0.000000
					CHANNELS 3 Zrotation Yrotation Xrotation
					JOINT RightToeBase
					{
						OFFSET -0.164730 -0.452590 2.363150
						CHANNELS 3 Zrotation Yrotation Xrotation
						End Site
						{
							OFFSET 0.000000 0.000000 0.000000
						}
					}
				}
			}
		}
	}
	JOINT LowerBack
	{
		OFFSET 0.000000 0.000000 0.000000
		CHANNELS 3 Zrotation Yrotation Xrotation
		JOINT Spine
		{
			OFFSET 0.028270 2.035590 -0.193380
			CHANNELS 3 Zrotation Yrotation Xrotation
			JOINT Spine1
			{
				OFFSET 0.056720 2.048850 -0.042750
				CHANNELS 3 Zrotation Yrotation Xrotation
				JOINT Neck
				{
					OFFSET 0.000000 0.000000 0.000000
					CHANNELS 3 Zrotation Yrotation Xrotation
					JOINT Neck1
					{
						OFFSET -0.054170 1.746240 0.172020
						CHANNELS 3 Zrotation Yrotation Xrotation
						JOINT Head
						{
							OFFSET 0.104070 1.761360 -0.123970
							CHANNELS 3 Zrotation Yrotation Xrotation
							End Site
							{
								OFFSET 0.000000 0.000000 0.000000
							}
						}
					}
				}
				JOINT LeftShoulder
				{
					OFFSET 0.000000 0.000000 0.000000
					CHANNELS 3 Zrotation Yrotation Xrotation
					JOINT LeftArm
					{
						OFFSET 3.362410 1.200890 -0.311210
						CHANNELS 3 Zrotation Yrotation Xrotation
						JOINT LeftForeArm
						{
							OFFSET 4.983000 -0.000000 -0.000000
							CHANNELS 3 Zrotation Yrotation Xrotation
							JOINT LeftHand
							{
								OFFSET 3.483560 -0.000000 -0.000000
								CHANNELS 3 Zrotation Yrotation Xrotation
								JOINT LeftFingerBase
								{
									OFFSET 0.000000 0.000000 0.000000
									CHANNELS 3 Zrotation Yrotation Xrotation
									JOINT LeftHandIndex1
									{
										OFFSET 0.715260 -0.000000 -0.000000
										CHANNELS 3 Zrotation Yrotation Xrotation
										End Site
										{
											OFFSET 0.000000 0.000000 0.000000
										}
									}
								}
								JOINT LThumb
								{
									OFFSET 0.000000 0.000000 0.000000
									CHANNELS 3 Zrotation Yrotation Xrotation
									End Site
									{
										OFFSET 0.000000 0.000000 0.000000
									}
								}
							}
						}
					}
				}
				JOINT RightShoulder
				{
					OFFSET 0.000000 0.000000 0.000000
					CHANNELS 3 Zrotation Yrotation Xrotation
					JOINT RightArm
					{
						OFFSET -3.136600 1.374050 -0.404650
						CHANNELS 3 Zrotation Yrotation Xrotation
						JOINT RightForeArm
						{
							OFFSET -5.241900 -0.000000 -0.000000
							CHANNELS 3 Zrotation Yrotation Xrotation
							JOINT RightHand
							{
								OFFSET -3.444170 -0.000000 -0.000000
								CHANNELS 3 Zrotation Yrotation Xrotation
								JOINT RightFingerBase
								{
									OFFSET 0.000000 0.000000 0.000000
									CHANNELS 3 Zrotation Yrotation Xrotation
									JOINT RightHandIndex1
									{
										OFFSET -0.622530 -0.000000 -0.000000
										CHANNELS 3 Zrotation Yrotation Xrotation
										End Site
										{
											OFFSET 0.000000 0.000000 0.000000
										}
									}
								}
								JOINT RThumb
								{
									OFFSET 0.000000 0.000000 0.000000
									CHANNELS 3 Zrotation Yrotation Xrotation
									End Site
									{
										OFFSET 0.000000 0.000000 0.000000
									}
								}
							}
						}
					}
				}
			}
		}
	}
}
MOTION
Frames: 9
Frame Time: 0.008333
7.383837 19.713247 0.892272 49.269189 -86.598550 -22.762822 -11.596745 3.140969 4.071428 -5.624399 -0.497849 -25.807381 0.733559 0.733915 38.224075 2.383893 9.729715 33.680207 5.397801 0.000000 -62.559100 11.114952 -2.565293 0.670175 5.498120 -12.798476 -29.158084 0.083422 -2.386343 40.733192 -1.423280 -6.040741 20.182016 -2.676600 -0.000000 -80.316300 1.039654 -0.810825 -5.881392 -0.108541 -0.966041 -4.686701 -3.719127 -0.885165 -3.945220 3.663401 -2.228904 3.915589 -1.710392 -0.297637 3.205697 0.000000 0.000000 0.000000 11.299312 -1.632184 -3.556910 -46.617407 -51.210517 -13.603679 178.439490 -80.260497 179.727257 19.169110 -0.871650 -0.292024 -0.196176 0.842558 -0.000000 0.000000 0.000000 0.000000 0.000000 0.000000 0.000000 -1.603715 -1.337465 -3.767291 54.192626 62.730341 -10.444910 -0.242315 80.894930 -0.210485 -14.643205 10.294744 -1.433147 -0.026023 -0.829765 -0.000000 0.000000 0.000000 0.000000 0.000000 0.000000 0.000000 
7.177628 19.835796 0.879309 47.704000 -86.644177 -21.296663 -11.583046 2.965788 3.811825 -5.860016 -0.044057 -26.785716 0.694809 0.808168 38.902394 2.361262 9.303041 33.836968 5.141700 -0.000000 -62.908100 11.063313 -2.420209 0.519192 5.808984 -12.774401 -29.909679 0.129497 -2.440141 40.787278 -1.410827 -6.109696 19.677807 -2.694700 0.000000 -80.268500 1.189294 -0.837143 -5.380136 -0.072666 -0.994678 -4.567368 -3.704379 -0.909676 -3.873566 3.627435 -2.345866 3.959559 -1.707375 -0.297471 3.208890 0.000000 0.000000 0.000000 11.382464 -1.321657 -3.545093 -46.321705 -50.921237 -14.178409 178.400775 -79.540954 179.729210 19.031336 -0.880552 -0.291456 -0.196259 0.842356 -0.000000 0.000000 0.000000 0.000000 0.000000 0.000000 0.000000 -1.740153 -1.559093 -3.882083 53.558161 62.568186 -11.401722 -0.110324 82.204541 -0.216708 -15.105738 10.427325 -1.498501 -0.017081 -0.835315 -0.000000 0.000000 0.000000 0.000000 0.000000 0.000000 0.000000 
6.970305 19.949036 0.866248 45.424896 -86.624755 -19.055494 -11.559344 2.799511 3.584955 -6.100859 0.360468 -27.795407 0.646935 0.869485 39.206265 2.332845 8.826572 34.161232 4.875100 0.000000 -63.075100 11.011994 -2.276875 0.379590 6.141899 -12.793790 -30.675118 0.190717 -2.476677 40.568885 -1.391084 -6.129460 19.339123 -2.706500 -0.000001 -80.396700 1.328396 -0.865809 -4.928448 -0.039965 -1.025693 -4.455972 -3.697223 -0.937339 -3.794707 3.625141 -2.468492 4.022306 -1.714697 -0.298032 3.216997 0.000000 0.000000 0.000000 11.450710 -1.058001 -3.545244 -46.216532 -50.735274 -14.634833 178.369946 -78.918197 179.731281 18.881199 -0.887186 -0.290172 -0.195415 0.842312 -0.000000 0.000000 0.000000 0.000000 0.000000 0.000000 0.000000 -1.799569 -1.805147 -3.985629 52.916505 62.367538 -12.335097 0.027407 83.544830 -0.222304 -15.540534 10.552073 -1.560954 -0.008035 -0.839920 -0.000000 0.000000 0.000000 0.000000 0.000000 0.000000 0.000000 
6.761464 20.052598 0.852946 42.782003 -86.541198 -16.397576 -11.526278 2.645980 3.393948 -6.359532 0.698851 -28.813317 0.590463 0.918684 39.143100 2.297229 8.347316 34.537596 4.615301 -0.000000 -63.092600 10.959790 -2.137745 0.254182 6.482050 -12.844369 -31.453241 0.267359 -2.499338 40.130555 -1.359424 -6.078326 19.069900 -2.695600 -0.000001 -80.347900 1.452372 -0.894848 -4.534019 -0.012379 -1.056987 -4.354830 -3.700195 -0.965777 -3.711824 3.657429 -2.592027 4.100192 -1.733858 -0.299373 3.229285 0.000000 0.000000 0.000000 11.494116 -0.850098 -3.555170 -46.250791 -50.647196 -14.993368 178.346000 -78.385357 179.733353 18.729052 -0.886546 -0.287680 -0.193997 0.842337 -0.000000 0.000000 0.000000 0.000000 0.000000 0.000000 0.000000 -1.771599 -2.067206 -4.074191 52.272795 62.146011 -13.230917 0.165911 84.885154 -0.226981 -15.924717 10.656144 -1.616204 0.000650 -0.843410 -0.000000 0.000000 0.000000 0.000000 0.000000 0.000000 0.000000 
6.550896 20.145541 0.839491 40.034473 -86.395249 -13.576491 -11.484860 2.506858 3.243876 -6.643249 0.951120 -29.849037 0.526967 0.957625 38.752761 2.252603 7.909423 34.842822 4.380301 -0.000000 -63.003200 10.904749 -2.005105 0.151804 6.825941 -12.899021 -32.263286 0.358400 -2.509957 39.517913 -1.316253 -5.967387 18.808812 -2.663500 0.000000 -80.202000 1.563606 -0.923721 -4.213246 0.010642 -1.088583 -4.268286 -3.712593 -0.994851 -3.628229 3.717143 -2.710744 4.188837 -1.763641 -0.301400 3.244968 0.000000 0.000000 0.000000 11.509674 -0.703977 -3.572314 -46.384901 -50.637750 -15.273507 178.327344 -77.925453 179.735247 18.586178 -0.881448 -0.284675 -0.192415 0.842517 -0.000000 0.000000 0.000000 0.000000 0.000000 0.000000 0.000000 -1.667550 -2.335908 -4.146437 51.642765 61.913242 -14.077903 0.301377 86.202524 -0.230677 -16.248764 10.737197 -1.662452 0.008716 -0.845912 -0.000000 0.000000 0.000000 0.000000 0.000000 0.000000 0.000000 
6.338663 20.227331 0.825961 37.428370 -86.192724 -10.843928 -11.436290 2.383532 3.132346 -6.958718 1.109918 -30.894038 0.457202 0.989443 38.078670 2.196275 7.547859 34.955254 4.185300 -0.000000 -62.751399 10.845740 -1.880645 0.075007 7.164405 -12.939975 -33.107072 0.463769 -2.511429 38.774750 -1.261030 -5.796370 18.496499 -2.606000 -0.000000 -79.891200 1.665536 -0.952377 -3.966188 0.030048 -1.120728 -4.197459 -3.732991 -1.024655 -3.547594 3.794803 -2.819498 4.284439 -1.802238 -0.303988 3.263226 0.000000 0.000000 0.000000 11.493302 -0.622076 -3.593363 -46.577960 -50.685458 -15.496103 178.312541 -77.516862 179.736820 18.462529 -0.879143 -0.282459 -0.191093 0.843007 -0.000000 0.000000 0.000000 0.000000 0.000000 0.000000 0.000000 -1.503250 -2.602455 -4.202535 51.040813 61.680486 -14.868452 0.430681 87.477016 -0.233451 -16.511606 10.796624 -1.699394 0.016029 -0.847625 -0.000000 0.000000 0.000000 0.000000 0.000000 0.000000 0.000000 
6.125023 20.297443 0.812603 35.071739 -85.941183 -8.302381 -11.380280 2.274637 3.060978 -7.304811 1.153017 -31.953364 0.381975 1.014636 37.157823 2.129820 7.308661 34.824587 4.060400 0.000000 -62.882500 10.781987 -1.763700 0.028248 7.494532 -12.942770 -33.996967 0.581986 -2.504326 37.926086 -1.197989 -5.593927 18.124071 -2.536000 -0.000000 -79.794300 1.765152 -0.981432 -3.797538 0.048176 -1.154661 -4.144267 -3.758028 -1.056403 -3.472527 3.876842 -2.914273 4.383337 -1.845986 -0.306914 3.283282 0.000000 0.000000 0.000000 11.445166 -0.600319 -3.615354 -46.799051 -50.767703 -15.680759 178.299955 -77.138635 179.737895 18.370537 -0.881621 -0.281531 -0.190496 0.843824 -0.000000 0.000000 0.000000 0.000000 0.000000 0.000000 0.000000 -1.308194 -2.859757 -4.245156 50.488974 61.452465 -15.597890 0.552565 88.698649 -0.235552 -16.725613 10.841960 -1.729431 0.022678 -0.848912 -0.000000 0.000000 0.000000 0.000000 0.000000 0.000000 0.000000 
5.910494 20.355964 0.799549 33.056535 -85.653155 -6.064280 -11.317540 2.181237 3.017599 -7.683441 1.099611 -33.002833 0.297854 1.037352 36.038130 2.048514 7.178736 34.350941 3.991199 0.000000 -62.836000 10.714076 -1.654137 0.004844 7.803379 -12.909807 -34.911690 0.714245 -2.491537 37.003233 -1.124998 -5.341452 17.651501 -2.442400 0.000000 -79.514100 1.867139 -1.010812 -3.685434 0.066367 -1.190207 -4.105117 -3.785587 -1.089811 -3.406051 3.953347 -2.991909 4.484340 -1.892599 -0.310046 3.304678 0.000000 0.000000 0.000000 11.362945 -0.633380 -3.635507 -47.019136 -50.865148 -15.844691 178.288527 -76.767693 179.738386 18.314301 -0.901745 -0.284097 -0.190890 0.845210 -0.000000 0.000000 0.000000 0.000000 0.000000 0.000000 0.000000 -1.101246 -3.101822 -4.277040 49.998787 61.238280 -16.263711 0.666096 89.857863 -0.237202 -16.903058 10.880746 -1.754664 0.028751 -0.850033 -0.000000 0.000000 0.000000 0.000000 0.000000 0.000000 0.000000 
5.695535 20.402424 0.787000 31.362279 -85.341728 -4.114680 -11.247570 2.101201 2.996818 -8.088820 0.953790 -34.035512 0.200857 1.057207 34.750988 1.953406 7.152440 33.530043 3.974100 0.000000 -62.697800 10.642211 -1.549810 0.001652 8.088189 -12.836140 -35.843546 0.859775 -2.472451 36.010341 -1.045380 -5.055861 17.102458 -2.334900 0.000000 -79.210100 1.978575 -1.040403 -3.617884 0.086836 -1.227512 -4.078020 -3.812509 -1.125015 -3.349268 4.013574 -3.050088 4.586708 -1.938791 -0.313202 3.327102 0.000000 0.000000 0.000000 11.248419 -0.709526 -3.651983 -47.223406 -50.962505 -15.999705 178.277158 -76.385237 179.738230 18.298472 -0.943976 -0.291056 -0.192513 0.847212 -0.000000 0.000000 0.000000 0.000000 0.000000 0.000000 0.000000 -0.907976 -3.324393 -4.302465 49.585896 61.040247 -16.865037 -179.228035 89.045587 179.761286 -17.063940 10.923075 -1.778796 0.034495 -0.851306 -0.000000 0.000000 0.000000 0.000000 0.000000 0.000000 0.000000 
